<svg width="64" height="64" viewBox="0 0 64 64" xmlns="http://www.w3.org/2000/svg">
  <defs>
    <linearGradient id="bgGradient" x1="0%" y1="0%" x2="100%" y2="100%">
      <stop offset="0%" style="stop-color:#667eea;stop-opacity:1" />
      <stop offset="100%" style="stop-color:#764ba2;stop-opacity:1" />
    </linearGradient>
    <linearGradient id="iconGradient" x1="0%" y1="0%" x2="100%" y2="100%">
      <stop offset="0%" style="stop-color:#00B894;stop-opacity:1" />
      <stop offset="100%" style="stop-color:#00D4FF;stop-opacity:1" />
    </linearGradient>
  </defs>
  
  <!-- Background circle -->
  <circle cx="32" cy="32" r="30" fill="url(#bgGradient)" stroke="#ffffff" stroke-width="2"/>
  
  <!-- AI Brain icon -->
  <g transform="translate(16, 16)">
    <!-- Brain outline -->
    <path d="M16 4c-4.4 0-8 3.6-8 8 0 1.1.2 2.1.6 3.1C7.2 16.2 6 17.5 6 19c0 2.2 1.8 4 4 4h12c2.2 0 4-1.8 4-4 0-1.5-1.2-2.8-2.6-3.9.4-1 .6-2 .6-3.1 0-4.4-3.6-8-8-8z" 
          fill="url(#iconGradient)" stroke="#ffffff" stroke-width="1.5"/>
    
    <!-- Neural connections -->
    <circle cx="12" cy="10" r="1.5" fill="#ffffff"/>
    <circle cx="20" cy="10" r="1.5" fill="#ffffff"/>
    <circle cx="16" cy="14" r="1.5" fill="#ffffff"/>
    <circle cx="10" cy="16" r="1" fill="#ffffff"/>
    <circle cx="22" cy="16" r="1" fill="#ffffff"/>
    
    <!-- Connection lines -->
    <line x1="12" y1="10" x2="16" y2="14" stroke="#ffffff" stroke-width="1" opacity="0.7"/>
    <line x1="20" y1="10" x2="16" y2="14" stroke="#ffffff" stroke-width="1" opacity="0.7"/>
    <line x1="16" y1="14" x2="10" y2="16" stroke="#ffffff" stroke-width="1" opacity="0.7"/>
    <line x1="16" y1="14" x2="22" y2="16" stroke="#ffffff" stroke-width="1" opacity="0.7"/>
  </g>
  
  <!-- Business chart element -->
  <g transform="translate(40, 40)">
    <rect x="0" y="8" width="3" height="8" fill="#ffffff" opacity="0.8"/>
    <rect x="4" y="5" width="3" height="11" fill="#ffffff" opacity="0.8"/>
    <rect x="8" y="2" width="3" height="14" fill="#ffffff" opacity="0.8"/>
    <rect x="12" y="6" width="3" height="10" fill="#ffffff" opacity="0.8"/>
  </g>
</svg>